#!OML:ASF E:\Mandelcareful walks\Project 1\Capture day 1\Session 1\Subject1.ASF
:FULLY-SPECIFIED
:DEGREES
652
root 9.53431 14.6644 3.2673 -528.25 134.715 -539.938
lowerback 36.0499 1.37365 -1.81984
upperback 8.93318 1.53565 -0.252009
thorax -8.08623 0.932716 0.0821571
lowerneck -26.9961 9.42744 3.42529
upperneck 21.9585 17.6699 -18.1602
head 14.3063 5.7189 -4.02547
rclavicle 3.52843e-014 -5.93869e-015
rhumerus -13.5518 -0.602794 -77.5962
rradius 49.0509
rwrist -22.9245
rhand -17.5525 -24.9028
rfingers 7.12502
rthumb 8.70221 -54.7034
lclavicle 3.52843e-014 -5.93869e-015
lhumerus -14.5559 -14.6636 78.7547
lradius 51.2127
lwrist 23.8623
lhand -28.8492 -12.5482
lfingers 7.12502
lthumb -2.20607 17.4202
rfemur -61.04 -3.92736 14.2515
rtibia 61.9356
rfoot -13.0297 7.38154
rtoes -2.27989
lfemur -35.8815 -3.81329 -5.5902
ltibia 76.8531
lfoot -25.8261 -10.83
ltoes -3.00985
653
root 9.48314 14.6804 3.50365 -528.301 133.736 -539.769
lowerback 36.5305 1.59035 -1.34331
upperback 9.08223 1.94444 -0.687483
thorax -8.07162 1.14006 -0.791773
lowerneck -27.835 9.23267 3.83519
upperneck 22.1756 17.2024 -17.9422
head 14.5093 5.51463 -4.1078
rclavicle 5.53615e-014 -1.2424e-015
rhumerus -13.0875 -2.00982 -78.1448
rradius 49.0445
rwrist -22.4758
rhand -17.1382 -24.7249
rfingers 7.12502
rthumb 9.10196 -54.5085
lclavicle 5.53615e-014 -1.2424e-015
lhumerus -13.9324 -15.7229 78.1603
lradius 50.7533
lwrist 23.9535
lhand -28.9813 -13.1565
lfingers 7.12502
lthumb -2.33362 16.8105
rfemur -60.4002 -3.69277 14.661
rtibia 62.6155
rfoot -14.3147 6.4273
rtoes -2.17535
lfemur -36.2045 -3.62459 -4.79429
ltibia 77.567
lfoot -23.4093 -11.045
ltoes -3.03986
654
root 9.44847 14.7135 3.73973 -528.128 132.9 -538.665
lowerback 37.5064 1.6451 -2.40431
upperback 9.09046 1.64419 -0.588284
thorax -8.41707 1.01519 -0.0399468
lowerneck -27.489 9.68787 3.76903
upperneck 21.5995 18.0059 -18.6261
head 14.4072 5.83441 -4.16169
rclavicle 4.72114e-015 6.95746e-015
rhumerus -12.4092 -0.448941 -78.1358
rradius 48.9369
rwrist -22.5541
rhand -16.7996 -24.3313
rfingers 7.12502
rthumb 9.42874 -54.1003
lclavicle 4.72114e-015 6.95746e-015
lhumerus -14.4996 -14.1006 78.377
lradius 50.3979
lwrist 23.6046
lhand -28.9108 -14.1283
lfingers 7.12502
lthumb -2.26553 15.8394
rfemur -59.1106 -3.75683 14.4304
rtibia 63.0881
rfoot -15.398 5.76681
rtoes -2.08673
lfemur -35.8948 -3.35839 -5.10201
ltibia 78.2953
lfoot -21.1215 -10.3952
ltoes -3.34976
655
root 9.44248 14.7607 3.92852 -528.394 131.16 -537.517
lowerback 39.3748 0.993508 -1.97235
upperback 9.07648 0.979556 -0.851482
thorax -9.03897 0.736507 -0.318971
lowerneck -27.1829 9.88112 3.63366
upperneck 21.1143 18.279 -18.7821
head 14.1871 5.98012 -4.12228
rclavicle 8.49307e-014 -3.00662e-014
rhumerus -12.1184 0.77321 -78.2059
rradius 49.2319
rwrist -23.1475
rhand -17.6104 -24.5952
rfingers 7.12502
rthumb 8.64633 -54.3981
lclavicle 8.49307e-014 -3.00662e-014
lhumerus -14.8071 -13.4208 78.2964
lradius 50.1291
lwrist 23.482
lhand -28.6757 -14.4538
lfingers 7.12502
lthumb -2.03852 15.5162
rfemur -56.9794 -5.12864 14.2735
rtibia 63.3234
rfoot -16.3486 5.42381
rtoes -1.93714
lfemur -35.5829 -3.94952 -5.71886
ltibia 79.1806
lfoot -18.6488 -8.93135
ltoes -3.10622
656
root 9.42265 14.8087 4.12008 -529.72 129.867 -537.614
lowerback 41.5424 0.636156 -1.28992
upperback 8.99507 0.804109 -0.965038
thorax -9.81154 0.675644 -0.757084
lowerneck -26.9073 10.0068 3.46365
upperneck 20.6806 18.4364 -18.819
head 13.958 6.08411 -4.0605
rclavicle -8.79125e-014 2.28105e-014
rhumerus -11.9937 1.80182 -78.2441
rradius 49.6994
rwrist -23.8126
rhand -18.2468 -24.8451
rfingers 7.12502
rthumb 8.03211 -54.6725
lclavicle -8.79125e-014 2.28105e-014
lhumerus -15.0535 -12.9915 78.2467
lradius 50.0527
lwrist 23.3829
lhand -28.6835 -14.4052
lfingers 7.12502
lthumb -2.04604 15.5647
rfemur -54.7122 -5.71527 14.996
rtibia 63.3852
rfoot -17.2592 4.77125
rtoes -0.602051
lfemur -35.0944 -3.31136 -5.42816
ltibia 80.2239
lfoot -16.1226 -7.72206
ltoes -1.80834
